<?xml version="1.0" encoding="UTF-8" standalone="no"?>
<!DOCTYPE svg PUBLIC "-//W3C//DTD SVG 1.1//EN"
 "http://www.w3.org/Graphics/SVG/1.1/DTD/svg11.dtd">
<!-- Generated by graphviz version 2.40.1 (20161225.0304)
 -->
<!-- Title: G Pages: 1 -->
<svg width="528pt" height="1078pt"
 viewBox="0.00 0.00 528.14 1078.00" xmlns="http://www.w3.org/2000/svg" xmlns:xlink="http://www.w3.org/1999/xlink">
<g id="graph0" class="graph" transform="scale(1 1) rotate(0) translate(4 1074)">
<title>G</title>
<polygon fill="#ffffff" stroke="transparent" points="-4,4 -4,-1074 524.139,-1074 524.139,4 -4,4"/>
<text text-anchor="start" x="95.5695" y="-1046.8" font-family="Times,serif" font-size="24.00" fill="#000000">s2n TLS 1.3 State Machine</text>
<!-- INITIAL -->
<g id="node1" class="node">
<title>INITIAL</title>
<polygon fill="none" stroke="#000000" points="259.139,-968 188.5881,-950 259.139,-932 329.6899,-950 259.139,-968"/>
<text text-anchor="middle" x="259.139" y="-946.3" font-family="Times,serif" font-size="14.00" fill="#000000">INITIAL</text>
</g>
<!-- CLIENT_HELLO -->
<g id="node2" class="node">
<title>CLIENT_HELLO</title>
<ellipse fill="none" stroke="#000000" cx="259.139" cy="-810" rx="90.1842" ry="18"/>
<text text-anchor="middle" x="259.139" y="-806.3" font-family="Times,serif" font-size="14.00" fill="#000000">CLIENT_HELLO</text>
</g>
<!-- INITIAL&#45;&gt;CLIENT_HELLO -->
<g id="edge1" class="edge">
<title>INITIAL&#45;&gt;CLIENT_HELLO</title>
<path fill="none" stroke="#000000" d="M259.139,-931.9841C259.139,-908.3829 259.139,-866.7198 259.139,-838.7374"/>
<polygon fill="#000000" stroke="#000000" points="262.6391,-838.3913 259.139,-828.3914 255.6391,-838.3914 262.6391,-838.3913"/>
</g>
<!-- SERVER_HELLO -->
<g id="node3" class="node">
<title>SERVER_HELLO</title>
<ellipse fill="none" stroke="#000000" cx="259.139" cy="-738" rx="90.9839" ry="18"/>
<text text-anchor="middle" x="259.139" y="-734.3" font-family="Times,serif" font-size="14.00" fill="#000000">SERVER_HELLO</text>
</g>
<!-- CLIENT_HELLO&#45;&gt;SERVER_HELLO -->
<g id="edge2" class="edge">
<title>CLIENT_HELLO&#45;&gt;SERVER_HELLO</title>
<path fill="none" stroke="#000000" d="M259.139,-791.8314C259.139,-784.131 259.139,-774.9743 259.139,-766.4166"/>
<polygon fill="#000000" stroke="#000000" points="262.6391,-766.4132 259.139,-756.4133 255.6391,-766.4133 262.6391,-766.4132"/>
</g>
<!-- SERVER_CHANGE_CIPHER_SPEC -->
<g id="node4" class="node">
<title>SERVER_CHANGE_CIPHER_SPEC</title>
<ellipse fill="none" stroke="#000000" cx="259.139" cy="-666" rx="176.5689" ry="18"/>
<text text-anchor="middle" x="259.139" y="-662.3" font-family="Times,serif" font-size="14.00" fill="#000000">SERVER_CHANGE_CIPHER_SPEC</text>
</g>
<!-- SERVER_HELLO&#45;&gt;SERVER_CHANGE_CIPHER_SPEC -->
<g id="edge3" class="edge">
<title>SERVER_HELLO&#45;&gt;SERVER_CHANGE_CIPHER_SPEC</title>
<path fill="none" stroke="#000000" d="M259.139,-719.8314C259.139,-712.131 259.139,-702.9743 259.139,-694.4166"/>
<polygon fill="#000000" stroke="#000000" points="262.6391,-694.4132 259.139,-684.4133 255.6391,-694.4133 262.6391,-694.4132"/>
</g>
<!-- ENCRYPTED_EXTENSIONS -->
<g id="node12" class="node">
<title>ENCRYPTED_EXTENSIONS</title>
<ellipse fill="none" stroke="#000000" cx="259.139" cy="-594" rx="145.6742" ry="18"/>
<text text-anchor="middle" x="259.139" y="-590.3" font-family="Times,serif" font-size="14.00" fill="#000000">ENCRYPTED_EXTENSIONS</text>
</g>
<!-- SERVER_CHANGE_CIPHER_SPEC&#45;&gt;ENCRYPTED_EXTENSIONS -->
<g id="edge11" class="edge">
<title>SERVER_CHANGE_CIPHER_SPEC&#45;&gt;ENCRYPTED_EXTENSIONS</title>
<path fill="none" stroke="#000000" d="M259.139,-647.8314C259.139,-640.131 259.139,-630.9743 259.139,-622.4166"/>
<polygon fill="#000000" stroke="#000000" points="262.6391,-622.4132 259.139,-612.4133 255.6391,-622.4133 262.6391,-622.4132"/>
</g>
<!-- SERVER_CERT -->
<g id="node5" class="node">
<title>SERVER_CERT</title>
<ellipse fill="none" stroke="#000000" cx="259.139" cy="-450" rx="83.3857" ry="18"/>
<text text-anchor="middle" x="259.139" y="-446.3" font-family="Times,serif" font-size="14.00" fill="#000000">SERVER_CERT</text>
</g>
<!-- SERVER_CERT_VERIFY -->
<g id="node6" class="node">
<title>SERVER_CERT_VERIFY</title>
<ellipse fill="none" stroke="#000000" cx="259.139" cy="-378" rx="124.5782" ry="18"/>
<text text-anchor="middle" x="259.139" y="-374.3" font-family="Times,serif" font-size="14.00" fill="#000000">SERVER_CERT_VERIFY</text>
</g>
<!-- SERVER_CERT&#45;&gt;SERVER_CERT_VERIFY -->
<g id="edge4" class="edge">
<title>SERVER_CERT&#45;&gt;SERVER_CERT_VERIFY</title>
<path fill="none" stroke="#000000" d="M259.139,-431.8314C259.139,-424.131 259.139,-414.9743 259.139,-406.4166"/>
<polygon fill="#000000" stroke="#000000" points="262.6391,-406.4132 259.139,-396.4133 255.6391,-406.4133 262.6391,-406.4132"/>
</g>
<!-- SERVER_FINISHED -->
<g id="node13" class="node">
<title>SERVER_FINISHED</title>
<ellipse fill="none" stroke="#000000" cx="259.139" cy="-306" rx="106.6812" ry="18"/>
<text text-anchor="middle" x="259.139" y="-302.3" font-family="Times,serif" font-size="14.00" fill="#000000">SERVER_FINISHED</text>
</g>
<!-- SERVER_CERT_VERIFY&#45;&gt;SERVER_FINISHED -->
<g id="edge15" class="edge">
<title>SERVER_CERT_VERIFY&#45;&gt;SERVER_FINISHED</title>
<path fill="none" stroke="#000000" d="M259.139,-359.8314C259.139,-352.131 259.139,-342.9743 259.139,-334.4166"/>
<polygon fill="#000000" stroke="#000000" points="262.6391,-334.4132 259.139,-324.4133 255.6391,-334.4133 262.6391,-334.4132"/>
</g>
<!-- SERVER_CERT_REQ -->
<g id="node7" class="node">
<title>SERVER_CERT_REQ</title>
<ellipse fill="none" stroke="#000000" cx="328.139" cy="-522" rx="109.381" ry="18"/>
<text text-anchor="middle" x="328.139" y="-518.3" font-family="Times,serif" font-size="14.00" fill="#000000">SERVER_CERT_REQ</text>
</g>
<!-- SERVER_CERT_REQ&#45;&gt;SERVER_CERT -->
<g id="edge5" class="edge">
<title>SERVER_CERT_REQ&#45;&gt;SERVER_CERT</title>
<path fill="none" stroke="#000000" d="M311.0828,-504.2022C302.7065,-495.4617 292.4685,-484.7786 283.3028,-475.2144"/>
<polygon fill="#000000" stroke="#000000" points="285.6841,-472.6408 276.2381,-467.8425 280.6302,-477.4841 285.6841,-472.6408"/>
</g>
<!-- CLIENT_CERT -->
<g id="node8" class="node">
<title>CLIENT_CERT</title>
<ellipse fill="none" stroke="#000000" cx="204.139" cy="-162" rx="81.7856" ry="18"/>
<text text-anchor="middle" x="204.139" y="-158.3" font-family="Times,serif" font-size="14.00" fill="#000000">CLIENT_CERT</text>
</g>
<!-- CLIENT_CERT_VERIFY -->
<g id="node9" class="node">
<title>CLIENT_CERT_VERIFY</title>
<ellipse fill="none" stroke="#000000" cx="124.139" cy="-90" rx="124.2781" ry="18"/>
<text text-anchor="middle" x="124.139" y="-86.3" font-family="Times,serif" font-size="14.00" fill="#000000">CLIENT_CERT_VERIFY</text>
</g>
<!-- CLIENT_CERT&#45;&gt;CLIENT_CERT_VERIFY -->
<g id="edge6" class="edge">
<title>CLIENT_CERT&#45;&gt;CLIENT_CERT_VERIFY</title>
<path fill="none" stroke="#000000" d="M184.3637,-144.2022C174.4597,-135.2887 162.3109,-124.3548 151.5252,-114.6476"/>
<polygon fill="#000000" stroke="#000000" points="153.7384,-111.9307 143.964,-107.8425 149.0556,-117.1338 153.7384,-111.9307"/>
</g>
<!-- CLIENT_FINISHED -->
<g id="node10" class="node">
<title>CLIENT_FINISHED</title>
<ellipse fill="none" stroke="#000000" cx="276.139" cy="-18" rx="105.8812" ry="18"/>
<text text-anchor="middle" x="276.139" y="-14.3" font-family="Times,serif" font-size="14.00" fill="#000000">CLIENT_FINISHED</text>
</g>
<!-- CLIENT_CERT&#45;&gt;CLIENT_FINISHED -->
<g id="edge7" class="edge">
<title>CLIENT_CERT&#45;&gt;CLIENT_FINISHED</title>
<path fill="none" stroke="#000000" d="M226.5459,-144.4747C237.3787,-134.8389 249.6298,-122.009 257.139,-108 267.3559,-88.9396 272.0803,-64.8599 274.2642,-46.4049"/>
<polygon fill="#000000" stroke="#000000" points="277.7652,-46.5683 275.2787,-36.2693 270.8,-45.871 277.7652,-46.5683"/>
</g>
<!-- CLIENT_CERT_VERIFY&#45;&gt;CLIENT_FINISHED -->
<g id="edge8" class="edge">
<title>CLIENT_CERT_VERIFY&#45;&gt;CLIENT_FINISHED</title>
<path fill="none" stroke="#000000" d="M160.5468,-72.7542C181.6803,-62.7436 208.4807,-50.0486 230.9536,-39.4036"/>
<polygon fill="#000000" stroke="#000000" points="232.7517,-42.4247 240.2908,-34.9807 229.7551,-36.0986 232.7517,-42.4247"/>
</g>
<!-- CLIENT_CHANGE_CIPHER_SPEC -->
<g id="node11" class="node">
<title>CLIENT_CHANGE_CIPHER_SPEC</title>
<ellipse fill="none" stroke="#000000" cx="259.139" cy="-234" rx="175.4689" ry="18"/>
<text text-anchor="middle" x="259.139" y="-230.3" font-family="Times,serif" font-size="14.00" fill="#000000">CLIENT_CHANGE_CIPHER_SPEC</text>
</g>
<!-- CLIENT_CHANGE_CIPHER_SPEC&#45;&gt;CLIENT_CERT -->
<g id="edge9" class="edge">
<title>CLIENT_CHANGE_CIPHER_SPEC&#45;&gt;CLIENT_CERT</title>
<path fill="none" stroke="#000000" d="M245.2602,-215.8314C238.828,-207.411 231.0657,-197.2495 224.0259,-188.0338"/>
<polygon fill="#000000" stroke="#000000" points="226.6746,-185.7355 217.8228,-179.9134 221.1119,-189.9848 226.6746,-185.7355"/>
</g>
<!-- CLIENT_CHANGE_CIPHER_SPEC&#45;&gt;CLIENT_FINISHED -->
<g id="edge10" class="edge">
<title>CLIENT_CHANGE_CIPHER_SPEC&#45;&gt;CLIENT_FINISHED</title>
<path fill="none" stroke="#000000" d="M275.1295,-215.9169C282.7928,-206.0371 291.1556,-193.1563 295.139,-180 308.9117,-134.5119 296.4587,-79.0372 286.2478,-46.2224"/>
<polygon fill="#000000" stroke="#000000" points="289.4748,-44.8285 283.0475,-36.4059 282.8195,-46.9983 289.4748,-44.8285"/>
</g>
<!-- ENCRYPTED_EXTENSIONS&#45;&gt;SERVER_CERT -->
<g id="edge13" class="edge">
<title>ENCRYPTED_EXTENSIONS&#45;&gt;SERVER_CERT</title>
<path fill="none" stroke="#000000" d="M236.464,-575.9909C226.3502,-566.4972 215.5192,-553.9355 210.139,-540 204.3763,-525.0738 204.3763,-518.9262 210.139,-504 214.328,-493.1498 221.8214,-483.1324 229.7079,-474.7475"/>
<polygon fill="#000000" stroke="#000000" points="232.3477,-477.0588 236.9776,-467.5291 227.4154,-472.0915 232.3477,-477.0588"/>
</g>
<!-- ENCRYPTED_EXTENSIONS&#45;&gt;SERVER_CERT_REQ -->
<g id="edge14" class="edge">
<title>ENCRYPTED_EXTENSIONS&#45;&gt;SERVER_CERT_REQ</title>
<path fill="none" stroke="#000000" d="M276.5506,-575.8314C284.8671,-567.1533 294.956,-556.6257 303.9984,-547.1902"/>
<polygon fill="#000000" stroke="#000000" points="306.5798,-549.555 310.972,-539.9134 301.5259,-544.7116 306.5798,-549.555"/>
</g>
<!-- SERVER_FINISHED&#45;&gt;CLIENT_CHANGE_CIPHER_SPEC -->
<g id="edge12" class="edge">
<title>SERVER_FINISHED&#45;&gt;CLIENT_CHANGE_CIPHER_SPEC</title>
<path fill="none" stroke="#000000" d="M259.139,-287.8314C259.139,-280.131 259.139,-270.9743 259.139,-262.4166"/>
<polygon fill="#000000" stroke="#000000" points="262.6391,-262.4132 259.139,-252.4133 255.6391,-262.4133 262.6391,-262.4132"/>
</g>
<!-- APPLICATION_DATA -->
<g id="node14" class="node">
<title>APPLICATION_DATA</title>
<polygon fill="none" stroke="#000000" points="520.139,-1036 348.139,-1036 348.139,-864 520.139,-864 520.139,-1036"/>
<text text-anchor="middle" x="434.139" y="-946.3" font-family="Times,serif" font-size="14.00" fill="#000000">APPLICATION_DATA</text>
</g>
</g>
</svg>
